<svg width="8" height="9" viewBox="0 0 8 9" fill="none" xmlns="http://www.w3.org/2000/svg">
<path d="M4.49268 1.09033C4.49268 0.814232 4.26882 0.590332 3.99268 0.590332C3.71654 0.590332 3.49268 0.814232 3.49268 1.09033C3.49268 2.74723 2.14954 4.09033 0.492676 4.09033C0.216536 4.09033 -0.00732422 4.31423 -0.00732422 4.59033C-0.00732422 4.86643 0.216536 5.09033 0.492676 5.09033C2.14954 5.09033 3.49268 6.43343 3.49268 8.09033C3.49268 8.36643 3.71654 8.59033 3.99268 8.59033C4.26882 8.59033 4.49268 8.36643 4.49268 8.09033C4.49268 6.43343 5.83582 5.09033 7.49268 5.09033C7.76878 5.09033 7.99268 4.86643 7.99268 4.59033C7.99268 4.31423 7.76878 4.09033 7.49268 4.09033C5.83582 4.09033 4.49268 2.74723 4.49268 1.09033Z" fill="white" fill-opacity="0.5"/>
</svg>
