<svg width="12" height="12" viewBox="0 0 12 12" fill="none" xmlns="http://www.w3.org/2000/svg">
<path d="M6.49268 0.590332C6.49268 0.314192 6.26878 0.090332 5.99268 0.090332C5.71658 0.090332 5.49268 0.314192 5.49268 0.590332C5.49268 3.07521 3.47788 5.09033 0.992676 5.09033C0.716576 5.09033 0.492676 5.31423 0.492676 5.59033C0.492676 5.86643 0.716576 6.09033 0.992676 6.09033C3.47798 6.09033 5.49268 8.10453 5.49268 10.5903C5.49268 10.8664 5.71658 11.0903 5.99268 11.0903C6.26878 11.0903 6.49268 10.8664 6.49268 10.5903C6.49268 8.10443 8.50678 6.09033 10.9927 6.09033C11.2688 6.09033 11.4927 5.86643 11.4927 5.59033C11.4927 5.31423 11.2688 5.09033 10.9927 5.09033C8.50688 5.09033 6.49268 3.07525 6.49268 0.590332Z" fill="white" fill-opacity="0.5"/>
</svg>
