<svg width="5" height="6" viewBox="0 0 5 6" fill="none" xmlns="http://www.w3.org/2000/svg">
<path d="M4.99268 3.09033C4.99268 2.91774 4.85277 2.77783 4.68018 2.77783C3.64464 2.77783 2.80518 1.93837 2.80518 0.902832C2.80518 0.730242 2.66527 0.590332 2.49268 0.590332C2.32009 0.590332 2.18018 0.730242 2.18018 0.902832C2.18018 1.93837 1.34072 2.77783 0.305176 2.77783C0.132586 2.77783 -0.00732422 2.91774 -0.00732422 3.09033C-0.00732422 3.26292 0.132586 3.40283 0.305176 3.40283C1.34072 3.40283 2.18018 4.24229 2.18018 5.27783C2.18018 5.45042 2.32009 5.59033 2.49268 5.59033C2.66527 5.59033 2.80518 5.45042 2.80518 5.27783C2.80518 4.24229 3.64464 3.40283 4.68018 3.40283C4.85277 3.40283 4.99268 3.26292 4.99268 3.09033Z" fill="white" fill-opacity="0.5"/>
</svg>
