<svg width="0" height="0" class="hidden">
      <symbol fill="none" xmlns="http://www.w3.org/2000/svg" viewBox="0 0 41 41" id="network">
        <path
          d="M20.5842 33.1001C27.7639 33.1001 33.5842 27.2798 33.5842 20.1001C33.5842 12.9204 27.7639 7.1001 20.5842 7.1001C13.4045 7.1001 7.58417 12.9204 7.58417 20.1001C7.58417 27.2798 13.4045 33.1001 20.5842 33.1001Z"
          fill="url(#paint0_linear_1_1346)" fill-opacity="0.24" stroke="white" stroke-linecap="round"
          stroke-linejoin="round"></path>
        <path opacity="0.4"
          d="M20.5842 18.1001C21.1146 18.1001 21.6233 18.3108 21.9984 18.6859C22.3735 19.061 22.5842 19.5697 22.5842 20.1001C22.5842 20.6305 22.3735 21.1392 21.9984 21.5143C21.6233 21.8894 21.1146 22.1001 20.5842 22.1001C20.0538 22.1001 19.5451 21.8894 19.17 21.5143C18.7949 21.1392 18.5842 20.6305 18.5842 20.1001C18.5842 19.5697 18.7949 19.061 19.17 18.6859C19.5451 18.3108 20.0538 18.1001 20.5842 18.1001Z"
          fill="#030014" stroke="white" stroke-linecap="round" stroke-linejoin="round"></path>
        <path
          d="M20.5842 5.1001C21.1146 5.1001 21.6233 5.31081 21.9984 5.68589C22.3735 6.06096 22.5842 6.56967 22.5842 7.1001C22.5842 7.63053 22.3735 8.13924 21.9984 8.51431C21.6233 8.88939 21.1146 9.1001 20.5842 9.1001C20.0538 9.1001 19.5451 8.88939 19.17 8.51431C18.7949 8.13924 18.5842 7.63053 18.5842 7.1001C18.5842 6.56967 18.7949 6.06096 19.17 5.68589C19.5451 5.31081 20.0538 5.1001 20.5842 5.1001ZM20.5842 31.1001C21.1146 31.1001 21.6233 31.3108 21.9984 31.6859C22.3735 32.061 22.5842 32.5697 22.5842 33.1001C22.5842 33.6305 22.3735 34.1392 21.9984 34.5143C21.6233 34.8894 21.1146 35.1001 20.5842 35.1001C20.0538 35.1001 19.5451 34.8894 19.17 34.5143C18.7949 34.1392 18.5842 33.6305 18.5842 33.1001C18.5842 32.5697 18.7949 32.061 19.17 31.6859C19.5451 31.3108 20.0538 31.1001 20.5842 31.1001ZM33.5842 18.1001C34.1146 18.1001 34.6233 18.3108 34.9984 18.6859C35.3735 19.061 35.5842 19.5697 35.5842 20.1001C35.5842 20.6305 35.3735 21.1392 34.9984 21.5143C34.6233 21.8894 34.1146 22.1001 33.5842 22.1001C33.0538 22.1001 32.5451 21.8894 32.17 21.5143C31.7949 21.1392 31.5842 20.6305 31.5842 20.1001C31.5842 19.5697 31.7949 19.061 32.17 18.6859C32.5451 18.3108 33.0538 18.1001 33.5842 18.1001ZM7.58417 18.1001C8.1146 18.1001 8.62331 18.3108 8.99838 18.6859C9.37346 19.061 9.58417 19.5697 9.58417 20.1001C9.58417 20.6305 9.37346 21.1392 8.99838 21.5143C8.62331 21.8894 8.1146 22.1001 7.58417 22.1001C7.05374 22.1001 6.54503 21.8894 6.16996 21.5143C5.79488 21.1392 5.58417 20.6305 5.58417 20.1001C5.58417 19.5697 5.79488 19.061 6.16996 18.6859C6.54503 18.3108 7.05374 18.1001 7.58417 18.1001Z"
          fill="#030014" stroke="white" stroke-linecap="round" stroke-linejoin="round"></path>
        <defs>
          <linearGradient id="paint0_linear_1_1346" x1="20.5842" y1="7.1001" x2="20.5842" y2="33.1001"
            gradientUnits="userSpaceOnUse">
            <stop stop-color="white" stop-opacity="0"></stop>
            <stop offset="1" stop-color="white"></stop>
          </linearGradient>
        </defs>
      </symbol>
      <symbol id="cloud">
      <path
              d="M27.5842 23.1001C30.3102 22.5341 32.5842 19.9941 32.5842 17.1001C32.5842 15.5088 31.9521 13.9827 30.8268 12.8575C29.7016 11.7322 28.1755 11.1001 26.5842 11.1001C26.5842 9.5088 25.9521 7.98268 24.8268 6.85746C23.7016 5.73224 22.1755 5.1001 20.5842 5.1001C18.9929 5.1001 17.4668 5.73224 16.3416 6.85746C15.2163 7.98268 14.5842 9.5088 14.5842 11.1001C12.9929 11.1001 11.4668 11.7322 10.3415 12.8575C9.21631 13.9827 8.58417 15.5088 8.58417 17.1001C8.58417 19.9801 10.8762 22.5201 13.5842 23.1001"
              fill="url(#paint0_linear_1_1333)" fill-opacity="0.24" />
            <path
              d="M27.5842 23.1001C30.3102 22.5341 32.5842 19.9941 32.5842 17.1001C32.5842 15.5088 31.9521 13.9827 30.8268 12.8575C29.7016 11.7322 28.1755 11.1001 26.5842 11.1001C26.5842 9.5088 25.9521 7.98268 24.8268 6.85746C23.7016 5.73224 22.1755 5.1001 20.5842 5.1001C18.9929 5.1001 17.4668 5.73224 16.3416 6.85746C15.2163 7.98268 14.5842 9.5088 14.5842 11.1001C12.9929 11.1001 11.4668 11.7322 10.3415 12.8575C9.21631 13.9827 8.58417 15.5088 8.58417 17.1001C8.58417 19.9801 10.8762 22.5201 13.5842 23.1001"
              stroke="white" stroke-linecap="round" stroke-linejoin="round" />
            <path opacity="0.32" d="M13.5842 35.1001V32.1001H27.5842V35.1001H13.5842Z" fill="white" stroke="white"
              stroke-linecap="round" stroke-linejoin="round" />
            <path d="M20.5842 28.1001V18.1001" stroke="white" stroke-linecap="round" stroke-linejoin="round" />
            <path d="M20.5842 17.1001L17.5842 21.1001H23.5842L20.5842 17.1001Z" fill="white" stroke="white"
              stroke-linecap="round" stroke-linejoin="round" />
            <defs>
              <linearGradient id="paint0_linear_1_1333" x1="20.5842" y1="5.1001" x2="20.5842" y2="23.1001"
                gradientUnits="userSpaceOnUse">
                <stop stop-color="white" stop-opacity="0" />
                <stop offset="1" stop-color="white" />
              </linearGradient>
            </defs>
      </symbol>

      <symbol id="phone">
<path d="M27.5842 14.1001V8.1001C27.5842 7.30445 27.2681 6.54139 26.7055 5.97878C26.1429 5.41617 25.3798 5.1001 24.5842 5.1001H8.58417C7.78852 5.1001 7.02546 5.41617 6.46285 5.97878C5.90024 6.54139 5.58417 7.30445 5.58417 8.1001V32.1001C5.58417 32.8957 5.90024 33.6588 6.46285 34.2214C7.02546 34.784 7.78852 35.1001 8.58417 35.1001H24.5842C25.3798 35.1001 26.1429 34.784 26.7055 34.2214C27.2681 33.6588 27.5842 32.8957 27.5842 32.1001V25.1001" fill="url(#paint0_linear_1_1357)" fill-opacity="0.24"/>
<path d="M27.5842 14.1001V8.1001C27.5842 7.30445 27.2681 6.54139 26.7055 5.97878C26.1429 5.41617 25.3798 5.1001 24.5842 5.1001H8.58417C7.78852 5.1001 7.02546 5.41617 6.46285 5.97878C5.90024 6.54139 5.58417 7.30445 5.58417 8.1001V32.1001C5.58417 32.8957 5.90024 33.6588 6.46285 34.2214C7.02546 34.784 7.78852 35.1001 8.58417 35.1001H24.5842C25.3798 35.1001 26.1429 34.784 26.7055 34.2214C27.2681 33.6588 27.5842 32.8957 27.5842 32.1001V25.1001" stroke="white" stroke-linecap="round" stroke-linejoin="round"/>
<path d="M21.5842 21.1001V18.1001H35.5842V21.1001H21.5842Z" fill="white" stroke="white" stroke-linecap="round" stroke-linejoin="round"/>
<path opacity="0.32" d="M9.58417 14.1001V11.1001H23.5842V14.1001H9.58417Z" fill="white" stroke="white" stroke-linecap="round" stroke-linejoin="round"/>
<path d="M20.5842 5.1001L18.5842 7.1001H14.5842L12.5842 5.1001" stroke="white" stroke-linecap="round" stroke-linejoin="round"/>
<defs>
<linearGradient id="paint0_linear_1_1357" x1="16.5842" y1="5.1001" x2="16.5842" y2="35.1001" gradientUnits="userSpaceOnUse">
<stop stop-color="white" stop-opacity="0"/>
<stop offset="1" stop-color="white"/>
</linearGradient>
</defs>
</symbol>


<symbol id="encryption">
<path d="M25.5842 19.1001V16.1001C25.5842 14.774 25.0574 13.5022 24.1197 12.5646C23.1821 11.6269 21.9103 11.1001 20.5842 11.1001C19.2581 11.1001 17.9863 11.6269 17.0487 12.5646C16.111 13.5022 15.5842 14.774 15.5842 16.1001V19.1001" stroke="white"/>
<path d="M13.5842 26.1001C13.5842 26.8957 13.9003 27.6588 14.4629 28.2214C15.0255 28.784 15.7886 29.1001 16.5842 29.1001H24.5842C25.3798 29.1001 26.1429 28.784 26.7055 28.2214C27.2681 27.6588 27.5842 26.8957 27.5842 26.1001V20.1001H13.5842V26.1001Z" fill="white" stroke="white"/>
<path d="M11.5842 35.1001H9.58417C8.5233 35.1001 7.50589 34.6787 6.75574 33.9285C6.0056 33.1784 5.58417 32.161 5.58417 31.1001V9.1001C5.58417 8.03923 6.0056 7.02182 6.75574 6.27167C7.50589 5.52153 8.5233 5.1001 9.58417 5.1001H31.5842C32.6451 5.1001 33.6625 5.52153 34.4126 6.27167C35.1628 7.02182 35.5842 8.03923 35.5842 9.1001V31.1001C35.5842 32.161 35.1628 33.1784 34.4126 33.9285C33.6625 34.6787 32.6451 35.1001 31.5842 35.1001H29.5842" fill="url(#paint0_linear_1_1369)" fill-opacity="0.24"/>
<path d="M11.5842 35.1001H9.58417C8.5233 35.1001 7.50589 34.6787 6.75574 33.9285C6.0056 33.1784 5.58417 32.161 5.58417 31.1001V9.1001C5.58417 8.03923 6.0056 7.02182 6.75574 6.27167C7.50589 5.52153 8.5233 5.1001 9.58417 5.1001H31.5842C32.6451 5.1001 33.6625 5.52153 34.4126 6.27167C35.1628 7.02182 35.5842 8.03923 35.5842 9.1001V31.1001C35.5842 32.161 35.1628 33.1784 34.4126 33.9285C33.6625 34.6787 32.6451 35.1001 31.5842 35.1001H29.5842" stroke="white" stroke-linecap="round" stroke-linejoin="round"/>
<path opacity="0.4" d="M15.5842 35.1001H25.5842" stroke="white" stroke-linecap="round" stroke-linejoin="round"/>
<defs>
<linearGradient id="paint0_linear_1_1369" x1="20.5842" y1="5.1001" x2="20.5842" y2="35.1001" gradientUnits="userSpaceOnUse">
<stop stop-color="white" stop-opacity="0"/>
<stop offset="1" stop-color="white"/>
</linearGradient>
</defs>
</symbol>

<symbol id="calendar">
<path d="M29.7842 11.1001H11.3842C10.6416 11.1001 9.92937 11.3811 9.40427 11.8811C8.87917 12.3812 8.58417 13.0595 8.58417 13.7668V29.4334C8.58417 30.1407 8.87917 30.819 9.40427 31.3191C9.92937 31.8191 10.6416 32.1001 11.3842 32.1001H29.7842C30.5268 32.1001 31.239 31.8191 31.7641 31.3191C32.2892 30.819 32.5842 30.1407 32.5842 29.4334V13.7668C32.5842 13.0595 32.2892 12.3812 31.7641 11.8811C31.239 11.3811 30.5268 11.1001 29.7842 11.1001Z" fill="url(#paint0_linear_1_1381)" fill-opacity="0.24" stroke="white" stroke-linecap="round" stroke-linejoin="round"/>
<path d="M8.58417 14.1001C8.58417 13.3045 8.87917 12.5414 9.40427 11.9788C9.92937 11.4162 10.6416 11.1001 11.3842 11.1001H29.7842C30.5268 11.1001 31.239 11.4162 31.7641 11.9788C32.2892 12.5414 32.5842 13.3045 32.5842 14.1001V15.1001H8.58417V14.1001Z" fill="white" fill-opacity="0.5" stroke="white"/>
<path d="M12.5842 8.1001V11.1001M28.5842 8.1001V11.1001" stroke="white" stroke-linecap="round"/>
<path d="M13.5842 21.1001V19.1001H15.5842V21.1001H13.5842ZM13.5842 27.1001V25.1001H15.5842V27.1001H13.5842ZM19.5842 21.1001V19.1001H21.5842V21.1001H19.5842ZM19.5842 27.1001V25.1001H21.5842V27.1001H19.5842Z" fill="white" stroke="white" stroke-linecap="round" stroke-linejoin="round"/>
<path opacity="0.4" d="M25.5842 21.1001V19.1001H27.5842V21.1001H25.5842Z" fill="white" stroke="white" stroke-linecap="round" stroke-linejoin="round"/>
<defs>
<linearGradient id="paint0_linear_1_1381" x1="22.5842" y1="11.1001" x2="22.5842" y2="35.1001" gradientUnits="userSpaceOnUse">
<stop stop-color="white" stop-opacity="0"/>
<stop offset="1" stop-color="white"/>
</linearGradient>
</defs>
</symbol>

<symbol id="cursor">
<path d="M18.5842 17.1001V35.1001L23.5842 28.1001H32.5842L18.5842 17.1001Z" fill="white" stroke="white" stroke-linejoin="round"/>
<path d="M20.5842 29.1001C25.5548 29.1001 29.5842 25.0707 29.5842 20.1001C29.5842 15.1295 25.5548 11.1001 20.5842 11.1001C15.6136 11.1001 11.5842 15.1295 11.5842 20.1001C11.5842 25.0707 15.6136 29.1001 20.5842 29.1001Z" fill="white" fill-opacity="0.12"/>
<path opacity="0.4" d="M20.5842 5.1001V7.1001" stroke="white" stroke-linecap="round" stroke-linejoin="round"/>
<path d="M28.0842 7.11011L27.0842 8.84211M33.5742 12.6001L31.8422 13.6001M35.5842 20.1001H33.5842M9.32617 26.6001L7.59417 27.6001M7.58417 20.1001H5.58417" stroke="white" stroke-linecap="round" stroke-linejoin="round"/>
<path opacity="0.4" d="M9.32594 13.6001L7.59394 12.6001M14.084 8.84211L13.084 7.11011" stroke="white" stroke-linecap="round" stroke-linejoin="round"/>
</symbol>

<symbol id="tablet">
<path d="M27.5842 8.1001V6.1001C27.5842 5.83488 27.4788 5.58053 27.2913 5.39299C27.1038 5.20546 26.8494 5.1001 26.5842 5.1001H6.58417C6.31895 5.1001 6.0646 5.20546 5.87706 5.39299C5.68953 5.58053 5.58417 5.83488 5.58417 6.1001V34.1001C5.58417 34.3653 5.68953 34.6197 5.87706 34.8072C6.0646 34.9947 6.31895 35.1001 6.58417 35.1001H26.5842C26.8494 35.1001 27.1038 34.9947 27.2913 34.8072C27.4788 34.6197 27.5842 34.3653 27.5842 34.1001V20.1001" fill="url(#paint0_linear_1_1407)" fill-opacity="0.24"/>
<path d="M27.5842 8.1001V6.1001C27.5842 5.83488 27.4788 5.58053 27.2913 5.39299C27.1038 5.20546 26.8494 5.1001 26.5842 5.1001H6.58417C6.31895 5.1001 6.0646 5.20546 5.87706 5.39299C5.68953 5.58053 5.58417 5.83488 5.58417 6.1001V34.1001C5.58417 34.3653 5.68953 34.6197 5.87706 34.8072C6.0646 34.9947 6.31895 35.1001 6.58417 35.1001H26.5842C26.8494 35.1001 27.1038 34.9947 27.2913 34.8072C27.4788 34.6197 27.5842 34.3653 27.5842 34.1001V20.1001" stroke="white" stroke-linecap="round" stroke-linejoin="round"/>
<path d="M5.58417 32.1001C5.58417 32.8957 5.90024 33.6588 6.46285 34.2214C7.02546 34.784 7.78852 35.1001 8.58417 35.1001H24.5842C25.3798 35.1001 26.1429 34.784 26.7055 34.2214C27.2681 33.6588 27.5842 32.8957 27.5842 32.1001V31.1001H5.58417V32.1001Z" fill="white" stroke="white"/>
<path d="M10.5842 26.1001V24.1001H22.5842V26.1001H10.5842Z" fill="white" stroke="white" stroke-linecap="round" stroke-linejoin="round"/>
<path opacity="0.4" d="M10.5842 20.1001H22.5842" stroke="white" stroke-linecap="round" stroke-linejoin="round"/>
<path d="M24.5842 14.1001H34.5842" stroke="white" stroke-linecap="round" stroke-linejoin="round"/>
<path d="M35.5842 14.1001L31.5842 11.1001V17.1001L35.5842 14.1001Z" fill="white" stroke="white" stroke-linecap="round" stroke-linejoin="round"/>
<path fill-rule="evenodd" clip-rule="evenodd" d="M14.8342 33.1001C14.8342 32.6859 15.17 32.3501 15.5842 32.3501H17.5842C17.9984 32.3501 18.3342 32.6859 18.3342 33.1001C18.3342 33.5143 17.9984 33.8501 17.5842 33.8501H15.5842C15.17 33.8501 14.8342 33.5143 14.8342 33.1001Z" fill="#080624"/>
<defs>
<linearGradient id="paint0_linear_1_1407" x1="16.5842" y1="5.1001" x2="16.5842" y2="35.1001" gradientUnits="userSpaceOnUse">
<stop stop-color="white" stop-opacity="0"/>
<stop offset="1" stop-color="white"/>
</linearGradient>
</defs>
</symbol>

<symbol id="window">
<path d="M32.5842 5.1001H8.58417C7.78852 5.1001 7.02546 5.41617 6.46285 5.97878C5.90024 6.54139 5.58417 7.30445 5.58417 8.1001V32.1001C5.58417 32.8957 5.90024 33.6588 6.46285 34.2214C7.02546 34.784 7.78852 35.1001 8.58417 35.1001H32.5842C33.3798 35.1001 34.1429 34.784 34.7055 34.2214C35.2681 33.6588 35.5842 32.8957 35.5842 32.1001V8.1001C35.5842 7.30445 35.2681 6.54139 34.7055 5.97878C34.1429 5.41617 33.3798 5.1001 32.5842 5.1001Z" fill="url(#paint0_linear_1_1423)" fill-opacity="0.24" stroke="white" stroke-linecap="round" stroke-linejoin="round"/>
<path d="M9.58417 9.1001H9.59417M12.5842 9.1001H12.5942M15.5842 9.1001H15.5942" stroke="white" stroke-width="1.5" stroke-linecap="round" stroke-linejoin="round"/>
<path d="M13.5842 27.1001V22.1001H27.5842V27.1001H13.5842Z" fill="white" stroke="white" stroke-linecap="round" stroke-linejoin="round"/>
<path opacity="0.4" d="M13.5842 19.1001H12.5842C12.0538 19.1001 11.5451 19.3108 11.17 19.6859C10.7949 20.061 10.5842 20.5697 10.5842 21.1001V22.1001M27.5842 19.1001H28.5842C29.1146 19.1001 29.6233 19.3108 29.9984 19.6859C30.3735 20.061 30.5842 20.5697 30.5842 21.1001V22.1001M13.5842 30.1001H12.5842C12.0538 30.1001 11.5451 29.8894 11.17 29.5143C10.7949 29.1392 10.5842 28.6305 10.5842 28.1001V27.1001M27.5842 30.1001H28.5842C29.1146 30.1001 29.6233 29.8894 29.9984 29.5143C30.3735 29.1392 30.5842 28.6305 30.5842 28.1001V27.1001" stroke="white" stroke-linecap="round" stroke-linejoin="round"/>
<defs>
<linearGradient id="paint0_linear_1_1423" x1="20.5842" y1="5.1001" x2="20.5842" y2="35.1001" gradientUnits="userSpaceOnUse">
<stop stop-color="white" stop-opacity="0"/>
<stop offset="1" stop-color="white"/>
</linearGradient>
</defs>
</symbol>

    </svg>